<svg width="161" height="50" viewBox="0 0 161 50" fill="none" xmlns="http://www.w3.org/2000/svg">
<g clip-path="url(#clip0_305_127)">
<path d="M50.4578 12.7718L52.2628 9.86358L52.6859 10.0048V28.5836L51.1347 30.5318L50.4578 12.7718ZM55.9012 30.5883C55.1867 30.5883 54.5098 30.353 53.8705 29.8824C53.2312 29.4118 52.6859 28.7154 52.2346 27.793C51.8022 26.8518 51.5389 25.7224 51.4449 24.4048L52.5449 22.7389C52.6765 23.1342 52.9115 23.4354 53.25 23.6424C53.5884 23.8306 53.9739 23.953 54.4064 24.0095C54.8388 24.0659 55.3371 24.0942 55.9012 24.0942C56.0704 24.0942 56.202 24.1695 56.2961 24.3201C56.4089 24.4706 56.4653 24.6871 56.4653 24.9695V29.8542C56.4653 30.3436 56.2773 30.5883 55.9012 30.5883ZM27.6404 38.0424C24.2371 38.0424 21.2004 37.7601 18.5304 37.1954C15.8792 36.6495 13.5288 35.8495 11.4793 34.7954C9.42979 33.7601 7.50249 32.4706 5.69741 30.9271C4.70085 30.0612 3.7513 29.1577 2.84876 28.2165C1.96503 27.2753 1.20351 26.3436 0.564209 25.4212L0.705231 25.2236C1.90862 26.0142 3.04619 26.6918 4.11796 27.2565C5.20853 27.8024 6.2991 28.3012 7.38967 28.753C9.02552 29.4118 10.8024 30.0048 12.7203 30.5318C14.6382 31.0401 16.8475 31.4542 19.3483 31.7742C21.8679 32.0942 24.6319 32.2542 27.6404 32.2542C30.7805 32.2542 33.8172 32.1224 36.7504 31.8589C39.6837 31.6142 42.4853 31.1906 45.1553 30.5883C47.8253 30.0048 50.1663 29.2236 52.1782 28.2448L52.6859 28.5836L51.3885 33.6095C49.245 35.0589 46.0485 36.1601 41.799 36.913C37.5496 37.6659 32.83 38.0424 27.6404 38.0424ZM56.3327 32.193L58.448 34.3106V34.8754L56.3327 36.9648L54.2173 34.8754V34.3106L56.3327 32.193ZM60.5631 32.193L62.6785 34.3106V34.8754L60.5631 36.9648L58.448 34.8754V34.3106L60.5631 32.193ZM55.9131 30.5883C55.537 30.5883 55.349 30.4471 55.349 30.1648V24.5742C55.349 24.2542 55.537 24.0942 55.9131 24.0942C56.4396 24.0942 57.3139 24.0377 58.5361 23.9248C59.777 23.793 60.6983 23.6612 61.3 23.5295L60.3128 25.1671L61.8359 21.1859L62.9923 20.3106L63.1615 20.3953L59.6641 29.7412C59.4761 30.0048 58.9402 30.2118 58.0567 30.3624C57.1917 30.513 56.4772 30.5883 55.9131 30.5883ZM65.6999 30.5883C64.4965 30.5883 63.4059 30.2118 62.4282 29.4589C61.4692 28.6871 60.7641 27.8024 60.3128 26.8048L62.0333 22.8801C62.2965 23.1248 62.635 23.3412 63.0487 23.5295C63.4811 23.7177 63.9324 23.8589 64.4025 23.953C64.8913 24.0471 65.3426 24.0942 65.7563 24.0942C66.0947 24.0942 66.264 24.3106 66.264 24.7436V29.9954C66.264 30.1836 66.2264 30.3342 66.1511 30.4471C66.0759 30.5412 65.9255 30.5883 65.6999 30.5883ZM77.7343 30.7859C76.4933 30.7671 75.0079 30.4942 73.278 29.9671C71.5482 29.4212 69.9687 28.6871 68.5397 27.7648L71.6704 22.8236C72.5917 23.3695 73.7669 23.8589 75.1959 24.2918C76.625 24.7248 77.9882 24.9695 79.2856 25.0259V25.9295C79.0411 25.1577 78.6181 24.4706 78.0164 23.8683C77.4335 23.2471 76.7378 22.8142 75.9292 22.5695C75.1959 22.3436 74.3968 22.2777 73.5319 22.3718C72.6857 22.4471 72.1029 22.8236 71.7832 23.5012C70.7114 25.7224 69.8183 27.3506 69.1038 28.3859C68.3893 29.4024 67.797 30.0236 67.3269 30.2495C66.8756 30.4754 66.3304 30.5883 65.6911 30.5883C65.5218 30.5883 65.3902 30.5224 65.2962 30.3906C65.1834 30.2589 65.127 30.0706 65.127 29.8259V24.913C65.127 24.6683 65.1834 24.4706 65.2962 24.3201C65.3902 24.1695 65.5218 24.0942 65.6911 24.0942C67.2329 24.0942 68.5209 23.9154 69.5551 23.5577C70.608 23.2001 71.3131 22.673 71.6704 21.9765C72.3849 20.5648 73.0148 19.5953 73.5601 19.0683C74.1242 18.5224 74.8011 18.2589 75.5908 18.2777C76.625 18.2777 77.5087 18.7953 78.242 19.8306C78.9941 20.8471 79.4548 22.0801 79.624 23.5295C79.812 24.9601 79.671 26.2306 79.201 27.3412L77.7343 30.7859ZM79.4184 31.633V31.2659L79.5594 31.1812C80.3491 31.5389 81.1858 31.8306 82.0696 32.0565C82.9533 32.2824 83.743 32.3954 84.4387 32.3954C85.5293 32.3954 86.6293 32.1977 87.7387 31.8024C88.848 31.4071 89.7694 30.8424 90.5027 30.1083C91.236 29.3742 91.6027 28.5271 91.6027 27.5671C91.6027 26.4565 91.3488 25.4777 90.8411 24.6306C90.3335 23.7648 89.6848 23.1059 88.895 22.6542C88.1241 22.1836 87.3532 21.9483 86.5823 21.9483C86.1122 21.9483 85.6703 22.0142 85.2567 22.1459C84.843 22.2589 84.4669 22.4471 84.1285 22.7106C83.8088 22.9554 83.5456 23.2565 83.3388 23.6142C84.655 23.9906 85.7926 24.1695 86.7515 24.1506C87.7105 24.1318 89.1395 23.953 91.0386 23.6142L91.8283 26.8048L91.7719 29.0918L89.0643 29.8824C88.1993 30.1459 87.3438 30.2495 86.4977 30.193C85.6515 30.1365 84.8054 29.9671 83.9593 29.6848L82.6619 24.4612C82.8687 23.313 83.1601 22.2495 83.5362 21.2706C83.9311 20.273 84.4199 19.473 85.0028 18.8706C85.5857 18.2495 86.2344 17.9389 86.9489 17.9389C87.7575 17.9389 88.5566 18.4283 89.3463 19.4071C90.1548 20.3671 90.8129 21.5906 91.3206 23.0777C91.8283 24.5648 92.0821 26.0048 92.0821 27.3977C92.0821 29.1295 91.7625 30.7012 91.1232 32.113C90.4839 33.5248 89.6472 34.6542 88.613 35.5012C87.5976 36.3671 86.5353 36.8848 85.4259 37.0542L79.4184 31.633ZM93.8561 8.35299V7.9577L95.7176 5.61417L95.6894 6.88476C94.8996 6.64005 94.2791 6.29182 93.8279 5.84005C93.3954 5.36946 93.1792 4.79535 93.1792 4.1177C93.1792 3.51535 93.3766 2.97888 93.7715 2.50829C94.1663 2.01888 94.6646 1.77417 95.2663 1.77417C95.774 1.77417 96.2064 1.95299 96.5637 2.31064C96.9209 2.64946 97.1654 3.20476 97.297 3.97652L97.0714 4.28711C96.8833 4.15535 96.6483 4.06123 96.3663 4.00476C96.0842 3.92946 95.7928 3.89182 95.4919 3.89182C94.815 3.89182 94.3167 4.05182 93.9971 4.37182C94.3167 4.57888 94.7304 4.73888 95.2381 4.85182C95.7458 4.96476 96.2722 5.02123 96.8175 5.02123C97.156 5.02123 97.4756 4.98358 97.7765 4.90829C98.0961 4.81417 98.4534 4.63535 98.8482 4.37182L99.0739 4.56946L98.2559 6.88476L94.1663 9.05888L93.8561 8.35299ZM95.4385 30.5883L94.7615 12.7718L96.5666 9.86358L96.9897 10.0048L97.6102 15.6236L96.9897 16.1883L96.7076 26.1271L95.6923 30.5883H95.4385Z" fill="black"/>
<g clip-path="url(#clip1_305_127)">
<mask id="mask0_305_127" style="mask-type:luminance" maskUnits="userSpaceOnUse" x="111" y="0" width="50" height="50">
<path d="M158.927 0H112.812C111.82 0 111.015 0.804405 111.015 1.79669V47.9117C111.015 48.904 111.82 49.7084 112.812 49.7084H158.927C159.919 49.7084 160.724 48.904 160.724 47.9117V1.79669C160.724 0.804405 159.919 0 158.927 0Z" fill="white"/>
</mask>
<g mask="url(#mask0_305_127)">
<path d="M158.927 0H112.812C111.82 0 111.015 0.804405 111.015 1.79669V47.9117C111.015 48.904 111.82 49.7084 112.812 49.7084H158.927C159.919 49.7084 160.724 48.904 160.724 47.9117V1.79669C160.724 0.804405 159.919 0 158.927 0Z" fill="black"/>
<path d="M141.493 37.4411C138.795 37.4003 135.565 36.8074 131.803 35.6626C128.042 34.477 124.608 32.8824 121.5 30.8791L128.308 20.1469C130.311 21.3326 132.866 22.3955 135.974 23.3359C139.081 24.2763 142.045 24.8078 144.866 24.9304V26.8929C143.967 25.3392 142.699 23.9083 141.064 22.6C139.469 21.2508 137.711 20.3514 135.79 19.9016C134.727 19.6155 133.418 19.6971 131.865 20.1469C130.311 20.5557 129.309 21.1895 128.86 22.0481L123.708 30.9405L122.114 29.8366L128.308 18.3071C129.493 16.1402 130.495 14.5048 131.313 13.4009C132.131 12.2562 132.948 11.4385 133.766 10.9479C134.624 10.4573 135.647 10.2324 136.832 10.2733C139.081 10.2733 141.002 11.3976 142.597 13.6463C144.232 15.854 145.234 18.5319 145.602 21.6801C146.011 24.7873 145.704 27.547 144.682 29.9592L141.493 37.4411ZM98.3188 39.4036V38.6063L98.7481 37.9931C104.349 36.4804 109.603 34.6406 114.509 32.4736C119.415 30.2659 122.747 27.8946 124.505 25.3597L125.303 28.0581C124.689 31.6151 123.115 35.2129 120.581 38.8516C118.087 42.5313 114.836 45.5771 110.83 47.9894L98.3188 39.4036Z" fill="#FCFCFC"/>
</g>
</g>
</g>
<defs>
<clipPath id="clip0_305_127">
<rect width="161" height="50" fill="white"/>
</clipPath>
<clipPath id="clip1_305_127">
<rect width="49.7084" height="49.7084" fill="white" transform="translate(111.015)"/>
</clipPath>
</defs>
</svg>
