<svg width="178" height="56" viewBox="0 0 178 56" fill="none" xmlns="http://www.w3.org/2000/svg">
<g clip-path="url(#clip0_305_140)">
<mask id="mask0_305_140" style="mask-type:luminance" maskUnits="userSpaceOnUse" x="128" y="0" width="50" height="50">
<path d="M176.193 0H129.807C128.809 0 128 0.809124 128 1.80723V48.1928C128 49.1909 128.809 50 129.807 50H176.193C177.191 50 178 49.1909 178 48.1928V1.80723C178 0.809124 177.191 0 176.193 0Z" fill="white"/>
</mask>
<g mask="url(#mask0_305_140)">
<path d="M176.193 0H129.807C128.809 0 128 0.809124 128 1.80723V48.1928C128 49.1909 128.809 50 129.807 50H176.193C177.191 50 178 49.1909 178 48.1928V1.80723C178 0.809124 177.191 0 176.193 0Z" fill="black"/>
<path d="M158.656 37.6607C155.942 37.6196 152.693 37.0232 148.91 35.8718C145.126 34.6791 141.672 33.0753 138.547 31.0602L145.394 20.265C147.409 21.4577 149.979 22.5269 153.105 23.4728C156.23 24.4187 159.212 24.9532 162.049 25.0766V27.0506C161.145 25.4878 159.87 24.0485 158.225 22.7325C156.621 21.3754 154.852 20.4707 152.92 20.0183C151.85 19.7305 150.534 19.8126 148.972 20.265C147.409 20.6763 146.401 21.3137 145.949 22.1773L140.767 31.1219L139.163 30.0116L145.394 18.4144C146.586 16.2348 147.594 14.5899 148.416 13.4795C149.239 12.3281 150.061 11.5055 150.884 11.012C151.748 10.5185 152.776 10.2924 153.968 10.3335C156.23 10.3335 158.163 11.4644 159.767 13.7263C161.412 15.947 162.419 18.6406 162.789 21.8072C163.201 24.9326 162.892 27.7085 161.864 30.1349L158.656 37.6607ZM115.229 39.6347V38.8328L115.661 38.2159C121.295 36.6943 126.579 34.8437 131.514 32.6641C136.449 30.4434 139.801 28.0582 141.569 25.5084L142.371 28.2226C141.754 31.8005 140.171 35.4194 137.621 39.0795C135.113 42.7807 131.843 45.8444 127.813 48.2708L115.229 39.6347Z" fill="#FCFCFC"/>
</g>
</g>
<path d="M57.248 17.808L59.296 14.512L59.776 14.672V35.728L58.016 37.936L57.248 17.808ZM63.424 38C62.6133 38 61.8453 37.7333 61.12 37.2C60.3947 36.6667 59.776 35.8773 59.264 34.832C58.7733 33.7653 58.4747 32.4853 58.368 30.992L59.616 29.104C59.7653 29.552 60.032 29.8933 60.416 30.128C60.8 30.3413 61.2373 30.48 61.728 30.544C62.2187 30.608 62.784 30.64 63.424 30.64C63.616 30.64 63.7653 30.7253 63.872 30.896C64 31.0667 64.064 31.312 64.064 31.632V37.168C64.064 37.7227 63.8507 38 63.424 38ZM31.36 46.448C27.4987 46.448 24.0533 46.128 21.024 45.488C18.016 44.8693 15.3493 43.9627 13.024 42.768C10.6987 41.5947 8.512 40.1333 6.464 38.384C5.33333 37.4027 4.256 36.3787 3.232 35.312C2.22933 34.2453 1.36533 33.1893 0.64 32.144L0.8 31.92C2.16533 32.816 3.456 33.584 4.672 34.224C5.90933 34.8427 7.14667 35.408 8.384 35.92C10.24 36.6667 12.256 37.3387 14.432 37.936C16.608 38.512 19.1147 38.9813 21.952 39.344C24.8107 39.7067 27.9467 39.888 31.36 39.888C34.9227 39.888 38.368 39.7387 41.696 39.44C45.024 39.1627 48.2027 38.6827 51.232 38C54.2613 37.3387 56.9173 36.4533 59.2 35.344L59.776 35.728L58.304 41.424C55.872 43.0667 52.2453 44.3147 47.424 45.168C42.6027 46.0213 37.248 46.448 31.36 46.448ZM63.9135 40.152L66.3135 42.552V43.192L63.9135 45.56L61.5135 43.192V42.552L63.9135 40.152ZM68.7135 40.152L71.1135 42.552V43.192L68.7135 45.56L66.3135 43.192V42.552L68.7135 40.152ZM63.4375 38C63.0108 38 62.7975 37.84 62.7975 37.52V31.184C62.7975 30.8213 63.0108 30.64 63.4375 30.64C64.0348 30.64 65.0268 30.576 66.4135 30.448C67.8215 30.2987 68.8668 30.1493 69.5495 30L68.4295 31.856L70.1575 27.344L71.4695 26.352L71.6615 26.448L67.6935 37.04C67.4802 37.3387 66.8722 37.5733 65.8695 37.744C64.8882 37.9147 64.0775 38 63.4375 38ZM74.5415 38C73.1762 38 71.9388 37.5733 70.8295 36.72C69.7415 35.8453 68.9415 34.8427 68.4295 33.712L70.3815 29.264C70.6802 29.5413 71.0642 29.7867 71.5335 30C72.0242 30.2133 72.5362 30.3733 73.0695 30.48C73.6242 30.5867 74.1362 30.64 74.6055 30.64C74.9895 30.64 75.1815 30.8853 75.1815 31.376V37.328C75.1815 37.5413 75.1388 37.712 75.0535 37.84C74.9682 37.9467 74.7975 38 74.5415 38ZM88.1953 38.224C86.7873 38.2027 85.1019 37.8933 83.1393 37.296C81.1766 36.6773 79.3846 35.8453 77.7633 34.8L81.3153 29.2C82.3606 29.8187 83.6939 30.3733 85.3153 30.864C86.9366 31.3547 88.4833 31.632 89.9553 31.696V32.72C89.6779 31.8453 89.1979 31.0667 88.5153 30.384C87.8539 29.68 87.0646 29.1893 86.1473 28.912C85.3153 28.656 84.4086 28.5813 83.4273 28.688C82.4673 28.7733 81.8059 29.2 81.4433 29.968C80.2273 32.4853 79.2139 34.3307 78.4033 35.504C77.5926 36.656 76.9206 37.36 76.3873 37.616C75.8753 37.872 75.2566 38 74.5312 38C74.3392 38 74.1899 37.9253 74.0832 37.776C73.9552 37.6267 73.8912 37.4133 73.8912 37.136V31.568C73.8912 31.2907 73.9552 31.0667 74.0832 30.896C74.1899 30.7253 74.3392 30.64 74.5312 30.64C76.2806 30.64 77.7419 30.4373 78.9153 30.032C80.1099 29.6267 80.9099 29.0293 81.3153 28.24C82.1259 26.64 82.8406 25.5413 83.4593 24.944C84.0993 24.3253 84.8673 24.0267 85.7633 24.048C86.9366 24.048 87.9393 24.6347 88.7713 25.808C89.6246 26.96 90.1473 28.3573 90.3393 30C90.5526 31.6213 90.3926 33.0613 89.8593 34.32L88.1953 38.224ZM90.1062 39.184V38.768L90.2662 38.672C91.1623 39.0773 92.1116 39.408 93.1143 39.664C94.1169 39.92 95.0129 40.048 95.8023 40.048C97.0396 40.048 98.2876 39.824 99.5463 39.376C100.805 38.928 101.85 38.288 102.682 37.456C103.514 36.624 103.93 35.664 103.93 34.576C103.93 33.3173 103.642 32.208 103.066 31.248C102.49 30.2667 101.754 29.52 100.858 29.008C99.9836 28.4747 99.1089 28.208 98.2343 28.208C97.7009 28.208 97.1996 28.2827 96.7303 28.432C96.2609 28.56 95.8343 28.7733 95.4503 29.072C95.0876 29.3493 94.7889 29.6907 94.5543 30.096C96.0476 30.5227 97.3383 30.7253 98.4263 30.704C99.5143 30.6827 101.136 30.48 103.29 30.096L104.186 33.712L104.122 36.304L101.05 37.2C100.069 37.4987 99.0983 37.616 98.1383 37.552C97.1783 37.488 96.2183 37.296 95.2583 36.976L93.7863 31.056C94.0209 29.7547 94.3516 28.5493 94.7783 27.44C95.2263 26.3093 95.7809 25.4027 96.4423 24.72C97.1036 24.016 97.8396 23.664 98.6503 23.664C99.5676 23.664 100.474 24.2187 101.37 25.328C102.288 26.416 103.034 27.8027 103.61 29.488C104.186 31.1733 104.474 32.8053 104.474 34.384C104.474 36.3467 104.112 38.128 103.386 39.728C102.661 41.328 101.712 42.608 100.538 43.568C99.3863 44.5493 98.1809 45.136 96.9223 45.328L90.1062 39.184ZM106.487 13.8V13.352L108.599 10.696L108.567 12.136C107.671 11.8587 106.967 11.464 106.455 10.952C105.964 10.4187 105.719 9.768 105.719 9C105.719 8.31733 105.943 7.70933 106.391 7.176C106.839 6.62133 107.404 6.344 108.087 6.344C108.663 6.344 109.153 6.54667 109.559 6.952C109.964 7.336 110.241 7.96533 110.391 8.84L110.135 9.192C109.921 9.04267 109.655 8.936 109.335 8.872C109.015 8.78667 108.684 8.744 108.343 8.744C107.575 8.744 107.009 8.92533 106.647 9.288C107.009 9.52267 107.479 9.704 108.055 9.832C108.631 9.96 109.228 10.024 109.847 10.024C110.231 10.024 110.593 9.98133 110.935 9.896C111.297 9.78933 111.703 9.58666 112.151 9.288L112.407 9.512L111.479 12.136L106.839 14.6L106.487 13.8ZM108.282 38L107.514 17.808L109.562 14.512L110.042 14.672L110.746 21.04L110.042 21.68L109.722 32.944L108.57 38H108.282Z" fill="black"/>
<defs>
<clipPath id="clip0_305_140">
<rect width="50" height="50" fill="white" transform="translate(128)"/>
</clipPath>
</defs>
</svg>
